HIERARCHY
ROOT hip
{
  OFFSET 0 0 0
  CHANNELS 6 Xposition Yposition Zposition Zrotation Yrotation Xrotation
  JOINT abdomen
  {
    OFFSET 0 20.6881 -0.73152
    CHANNELS 3 Zrotation Xrotation Yrotation
    JOINT chest
    {
      OFFSET 0 11.7043 -0.48768
      CHANNELS 3 Zrotation Xrotation Yrotation
      JOINT neck
      {
        OFFSET 0 22.1894 -2.19456
        CHANNELS 3 Zrotation Xrotation Yrotation
        JOINT head
        {
          OFFSET -0.24384 7.07133 1.2192
          CHANNELS 3 Zrotation Xrotation Yrotation
          JOINT leftEye
          {
            OFFSET 4.14528 8.04674 8.04672
            CHANNELS 3 Zrotation Xrotation Yrotation
            End Site
            {
              OFFSET 1 0 0
            }
          }
          JOINT rightEye
          {
            OFFSET -3.6576 8.04674 8.04672
            CHANNELS 3 Zrotation Xrotation Yrotation
            End Site
            {
              OFFSET 1 0 0
            }
          }
        }
      }
      JOINT rCollar
      {
        OFFSET -2.68224 19.2634 -4.8768
        CHANNELS 3 Zrotation Xrotation Yrotation
        JOINT rShldr
        {
          OFFSET -8.77824 -1.95073 1.46304
          CHANNELS 3 Zrotation Xrotation Yrotation
          JOINT rForeArm
          {
            OFFSET -28.1742 -1.7115 0.48768
            CHANNELS 3 Zrotation Xrotation Yrotation
            JOINT rHand
            {
              OFFSET -22.5879 0.773209 7.07136
              CHANNELS 3 Zrotation Xrotation Yrotation
              JOINT rThumb1
              {
                OFFSET -1.2192 -0.487915 3.41376
                CHANNELS 3 Zrotation Xrotation Yrotation
                JOINT rThumb2
                {
                  OFFSET -3.37035 -0.52449 3.41376
                  CHANNELS 3 Zrotation Xrotation Yrotation
                  End Site
                  {
                    OFFSET -1.78271 -1.18214 1.43049
                  }
                }
              }
              JOINT rIndex1
              {
                OFFSET -7.75947 0.938293 5.60832
                CHANNELS 3 Zrotation Xrotation Yrotation
                JOINT rIndex2
                {
                  OFFSET -2.54057 -0.884171 1.56538
                  CHANNELS 3 Zrotation Xrotation Yrotation
                  End Site
                  {
                    OFFSET -1.62519 -0.234802 1.16502
                  }
                }
              }
              JOINT rMid1
              {
                OFFSET -8.24714 1.18213 3.41376
                CHANNELS 3 Zrotation Xrotation Yrotation
                JOINT rMid2
                {
                  OFFSET -3.10165 -0.590103 1.0647
                  CHANNELS 3 Zrotation Xrotation Yrotation
                  End Site
                  {
                    OFFSET -2.48547 -0.328903 0.83742
                  }
                }
              }
              JOINT rRing1
              {
                OFFSET -8.82822 0.546677 1.51678
                CHANNELS 3 Zrotation Xrotation Yrotation
                JOINT rRing2
                {
                  OFFSET -2.60934 -0.819778 -0.0198488
                  CHANNELS 3 Zrotation Xrotation Yrotation
                  End Site
                  {
                    OFFSET -2.33842 -0.294052 0.168128
                  }
                }
              }
              JOINT rPinky1
              {
                OFFSET -8.27202 -0.0477905 -0.4584
                CHANNELS 3 Zrotation Xrotation Yrotation
                JOINT rPinky2
                {
                  OFFSET -1.82734 -0.647385 -0.700984
                  CHANNELS 3 Zrotation Xrotation Yrotation
                  End Site
                  {
                    OFFSET -1.69225 -0.51767 -0.607171
                  }
                }
              }
            }
          }
        }
      }
      JOINT lCollar
      {
        OFFSET 2.68224 19.2634 -4.8768
        CHANNELS 3 Zrotation Xrotation Yrotation
        JOINT lShldr
        {
          OFFSET 8.77824 -1.95073 1.46304
          CHANNELS 3 Zrotation Xrotation Yrotation
          JOINT lForeArm
          {
            OFFSET 28.1742 -1.7115 0.48768
            CHANNELS 3 Zrotation Xrotation Yrotation
            JOINT lHand
            {
              OFFSET 22.5879 0.773209 7.07136
              CHANNELS 3 Zrotation Xrotation Yrotation
              JOINT lThumb1
              {
                OFFSET 1.2192 -0.487915 3.41376
                CHANNELS 3 Zrotation Xrotation Yrotation
                JOINT lThumb2
                {
                  OFFSET 3.37035 -0.52449 3.41376
                  CHANNELS 3 Zrotation Xrotation Yrotation
                  End Site
                  {
                    OFFSET 1.78271 -1.18214 1.43049
                  }
                }
              }
              JOINT lIndex1
              {
                OFFSET 7.75947 0.938293 5.60832
                CHANNELS 3 Zrotation Xrotation Yrotation
                JOINT lIndex2
                {
                  OFFSET 2.54057 -0.884171 1.56538
                  CHANNELS 3 Zrotation Xrotation Yrotation
                  End Site
                  {
                    OFFSET 1.62519 -0.234802 1.16502
                  }
                }
              }
              JOINT lMid1
              {
                OFFSET 8.24714 1.18213 3.41376
                CHANNELS 3 Zrotation Xrotation Yrotation
                JOINT lMid2
                {
                  OFFSET 3.10165 -0.590103 1.0647
                  CHANNELS 3 Zrotation Xrotation Yrotation
                  End Site
                  {
                    OFFSET 2.48547 -0.328903 0.83742
                  }
                }
              }
              JOINT lRing1
              {
                OFFSET 8.82822 0.546677 1.51678
                CHANNELS 3 Zrotation Xrotation Yrotation
                JOINT lRing2
                {
                  OFFSET 2.60934 -0.819778 -0.0198488
                  CHANNELS 3 Zrotation Xrotation Yrotation
                  End Site
                  {
                    OFFSET 2.33842 -0.294052 0.168128
                  }
                }
              }
              JOINT lPinky1
              {
                OFFSET 8.27202 -0.0477905 -0.4584
                CHANNELS 3 Zrotation Xrotation Yrotation
                JOINT lPinky2
                {
                  OFFSET 1.82734 -0.647385 -0.700984
                  CHANNELS 3 Zrotation Xrotation Yrotation
                  End Site
                  {
                    OFFSET 1.69225 -0.51767 -0.607171
                  }
                }
              }
            }
          }
        }
      }
    }
  }
  JOINT rButtock
  {
    OFFSET -8.77824 4.35084 1.2192
    CHANNELS 3 Zrotation Xrotation Yrotation
    JOINT rThigh
    {
      OFFSET 0 -1.70687 -2.19456
      CHANNELS 3 Zrotation Xrotation Yrotation
      JOINT rShin
      {
        OFFSET 0 -36.8199 0.73152
        CHANNELS 3 Zrotation Xrotation Yrotation
        JOINT rFoot
        {
          OFFSET 0.73152 -45.1104 -5.12064
          CHANNELS 3 Zrotation Xrotation Yrotation
          End Site
          {
            OFFSET -1.1221 -3.69964 12.103
          }
        }
      }
    }
  }
  JOINT lButtock
  {
    OFFSET 8.77824 4.35084 1.2192
    CHANNELS 3 Zrotation Xrotation Yrotation
    JOINT lThigh
    {
      OFFSET 0 -1.70687 -2.19456
      CHANNELS 3 Zrotation Xrotation Yrotation
      JOINT lShin
      {
        OFFSET 0 -36.8199 0.73152
        CHANNELS 3 Zrotation Xrotation Yrotation
        JOINT lFoot
        {
          OFFSET -0.73152 -45.1104 -5.12064
          CHANNELS 3 Zrotation Xrotation Yrotation
          End Site
          {
            OFFSET 1.1221 -3.69964 12.103
          }
        }
      }
    }
  }
}
MOTION
Frames:	4
Frame Time:	0.03333
0.7040999771788847 61.57670021057129 62.235000346117886 1.8554635047912598 27.851224899291992 -10.925639152526855 -12.851591110229492 22.163005828857422 -6.258814811706543 11.572291374206543 -6.724358081817627 -1.549275279045105 -7.752315521240234 17.65729522705078 -10.148699760437012 11.96749496459961 -22.57049560546875 -17.648101806640625 -0.0 0.0 -0.0 -0.0 0.0 -0.0 -0.0 -0.0 -0.0 76.67998504638672 16.120695114135742 -20.2576961517334 -25.52989387512207 -22.283214569091797 54.89659881591797 -0.0165080726146698 -3.665530204772949 -0.5158947706222534 -0.0 -0.0 -0.0 -0.0 -0.0 -0.0 -0.0 -0.0 -0.0 7.730902194976807 5.47491455078125 0.4173222780227661 -0.0 -0.0 -0.0 2.905566453933716 0.9650754332542419 0.10300818830728531 -0.0 -0.0 -0.0 10.278596878051758 0.7318810820579529 0.026273518800735474 -0.0 -0.0 -0.0 2.221662998199463 -0.7334509491920471 -0.20832103490829468 -0.0 -0.0 -0.0 -58.21098709106445 34.95109939575195 -30.117795944213867 12.027612686157227 -5.467986583709717 -21.663410186767578 0.4638913571834564 18.99289321899414 -2.7726356983184814 -0.0 0.0 -0.0 -0.0 0.0 -0.0 -0.0 0.0 -0.0 -7.730902194976807 5.47491455078125 -0.4173222780227661 -0.0 0.0 -0.0 -2.905566453933716 0.9650754332542419 -0.10300818830728531 -0.0 0.0 -0.0 -10.278596878051758 0.7318810820579529 -0.026273518800735474 -0.0 0.0 -0.0 -2.221662998199463 -0.7334509491920471 0.20832103490829468 -0.0 0.0 -0.0 -31.590293884277344 -43.14891052246094 -18.971385955810547 -0.4524262845516205 43.60340118408203 0.5852355360984802 -1.3386485576629639 20.440256118774414 6.77088737487793 0.0 0.0 0.0 10.426788330078125 -5.375921726226807 -0.9855784177780151 0.9167148470878601 65.2735824584961 -3.4990410804748535 19.512802124023438 -26.894702911376953 35.81480407714844
0.5524999753333759 61.013197898864746 63.74900032606092 2.218611478805542 28.444902420043945 -10.807628631591797 -13.954791069030762 22.09679412841797 -5.12434720993042 10.980097770690918 -7.1506266593933105 -1.2876875400543213 -7.723519325256348 17.862499237060547 -10.5477876663208 11.976012229919434 -22.819198608398438 -18.425697326660156 -0.0 0.0 -0.0 -0.0 0.0 -0.0 -0.0 -0.0 -0.0 76.185791015625 17.431411743164062 -20.36669158935547 -24.586894989013672 -20.250408172607422 51.3849983215332 -0.028344495221972466 -4.799995422363281 -0.6762718558311462 -0.0 0.0 -0.0 -0.0 0.0 -0.0 -0.0 0.0 -0.0 7.730902194976807 5.47491455078125 0.4173222780227661 -0.0 0.0 -0.0 2.905566453933716 0.9650754332542419 0.10300818830728531 -0.0 0.0 -0.0 10.278596878051758 0.7318810820579529 0.026273518800735474 -0.0 0.0 -0.0 2.221662998199463 -0.7334509491920471 -0.20832103490829468 -0.0 -0.0 -0.0 -57.21359634399414 36.72568893432617 -29.39209747314453 13.778397560119629 -6.8040242195129395 -25.060890197753906 0.32937881350517273 16.116771697998047 -2.3261349201202393 -0.0 0.0 -0.0 -0.0 0.0 -0.0 -0.0 0.0 -0.0 -7.730902194976807 5.47491455078125 -0.4173222780227661 -0.0 0.0 -0.0 -2.905566453933716 0.9650754332542419 -0.10300818830728531 -0.0 0.0 -0.0 -10.278596878051758 0.7318810820579529 -0.026273518800735474 -0.0 0.0 -0.0 -2.221662998199463 -0.7334509491920471 0.20832103490829468 -0.0 0.0 -0.0 -32.64229202270508 -44.372005462646484 -20.027576446533203 -0.5526415109634399 47.444000244140625 0.7291544079780579 -0.8491506576538086 16.577024459838867 6.444523334503174 0.0 0.0 0.0 11.29970645904541 -4.109903335571289 -0.6325742602348328 0.8419289588928223 64.72051239013672 -3.5629496574401855 19.435997009277344 -26.84300994873047 35.95589828491211
0.5535999753419674 60.56640148162842 65.119000327104 3.5673835277557373 28.103513717651367 -9.739068984985352 -15.461090087890625 22.02649688720703 -3.7487924098968506 10.289510726928711 -7.5333685874938965 -0.9917161464691162 -7.5758843421936035 17.77429962158203 -10.703195571899414 11.74930191040039 -22.684892654418945 -18.768896102905273 -0.0 0.0 -0.0 -0.0 0.0 -0.0 0.0 0.0 0.0 75.2146987915039 19.99880027770996 -19.297588348388672 -23.39299964904785 -18.004283905029297 47.7429084777832 -0.031138882040977478 -5.030632495880127 -0.7088402509689331 -0.0 0.0 0.0 -0.0 0.0 0.0 -0.0 0.0 0.0 7.730902194976807 5.47491455078125 0.4173222780227661 -0.0 0.0 0.0 2.905566453933716 0.9650754332542419 0.10300818830728531 -0.0 0.0 0.0 10.278596878051758 0.7318810820579529 0.026273518800735474 -0.0 0.0 0.0 2.221662998199463 -0.7334509491920471 -0.20832103490829468 0.0 0.0 0.0 -57.34339141845703 37.675994873046875 -27.455997467041016 15.528494834899902 -8.256437301635742 -28.683399200439453 0.18061427772045135 12.0224027633667 -1.7150778770446777 -0.0 0.0 -0.0 -0.0 0.0 -0.0 -0.0 0.0 -0.0 -7.730902194976807 5.47491455078125 -0.4173222780227661 -0.0 0.0 -0.0 -2.905566453933716 0.9650754332542419 -0.10300818830728531 -0.0 0.0 -0.0 -10.278596878051758 0.7318810820579529 -0.026273518800735474 -0.0 0.0 -0.0 -2.221662998199463 -0.7334509491920471 0.20832103490829468 -0.0 0.0 -0.0 -34.287296295166016 -46.473304748535156 -20.846498489379883 -0.6810768246650696 51.34599304199219 0.9208375811576843 -0.656457781791687 14.326462745666504 6.744071960449219 0.0 0.0 0.0 11.349996566772461 -2.495300769805908 0.1722855567932129 0.743881106376648 63.64900207519531 -3.5595078468322754 19.31720542907715 -26.81979751586914 35.98590087890625
0.6074999724887675 60.00620126724243 66.29500034105149 5.28048038482666 27.19190216064453 -8.492989540100098 -17.44089698791504 21.655302047729492 -2.6291446685791016 9.762585639953613 -7.697524070739746 -0.7942283153533936 -7.342175483703613 17.661893844604492 -10.653794288635254 11.608500480651855 -22.517990112304688 -18.694297790527344 -0.0 0.0 -0.0 -0.0 0.0 -0.0 0.0 0.0 0.0 73.77040100097656 22.589248657226562 -17.163175582885742 -22.200998306274414 -16.077096939086914 44.2963981628418 0.004099433310329914 -2.841620922088623 -0.3988703489303589 -0.0 0.0 0.0 -0.0 0.0 0.0 -0.0 0.0 0.0 7.730902194976807 5.47491455078125 0.4173222780227661 -0.0 0.0 0.0 2.905566453933716 0.9650754332542419 0.10300818830728531 -0.0 0.0 0.0 10.278596878051758 0.7318810820579529 0.026273518800735474 -0.0 0.0 0.0 2.221662998199463 -0.7334509491920471 -0.20832103490829468 0.0 0.0 0.0 -59.27199935913086 37.14820098876953 -24.135597229003906 17.07889747619629 -9.744611740112305 -31.936603546142578 0.0639958530664444 7.204705715179443 -1.0164923667907715 -0.0 0.0 -0.0 -0.0 0.0 -0.0 -0.0 0.0 -0.0 -7.730902194976807 5.47491455078125 -0.4173222780227661 -0.0 0.0 -0.0 -2.905566453933716 0.9650754332542419 -0.10300818830728531 -0.0 0.0 -0.0 -10.278596878051758 0.7318810820579529 -0.026273518800735474 -0.0 0.0 -0.0 -2.221662998199463 -0.7334509491920471 0.20832103490829468 -0.0 0.0 -0.0 -37.29548263549805 -48.69320297241211 -22.98607063293457 -0.8217803835868835 54.88428497314453 1.108355164527893 -0.605887770652771 12.564009666442871 7.590258598327637 0.0 0.0 0.0 10.519299507141113 -0.7314507961273193 1.304271936416626 0.6387242674827576 62.297996520996094 -3.561955451965332 19.56309700012207 -26.923006057739258 36.4495964050293
